<svg width="149" height="39" viewBox="0 0 149 39" fill="none" xmlns="http://www.w3.org/2000/svg">
<path d="M115.702 11.4526C115.534 11.8633 115.145 12.1815 114.541 12.4102C113.937 12.6397 113 12.7505 111.737 12.7505C111.966 13.0757 112.159 13.4247 112.313 13.7919C112.642 14.5573 112.87 15.3619 112.992 16.1858C113.043 16.5214 113.071 16.8601 113.075 17.1988C113.08 18.284 112.863 19.3588 112.435 20.3563C112.024 21.3157 111.432 22.187 110.692 22.9228C109.954 23.6587 109.085 24.2515 108.13 24.6693C107.138 25.0976 106.068 25.3159 104.987 25.3103C103.727 25.3153 102.484 25.0224 101.359 24.4556L101.214 24.5411C100.695 24.8276 100.197 25.1473 99.7199 25.4987C99.5309 25.6207 99.3748 25.7873 99.2653 25.9838C99.1559 26.1803 99.0963 26.4007 99.092 26.6256C99.0897 26.7807 99.1269 26.9342 99.1989 27.0719C99.446 27.3489 99.7555 27.5634 100.102 27.6971C100.529 27.8752 100.974 28.0081 101.429 28.092C101.957 28.1909 102.49 28.2621 103.026 28.3057C103.595 28.3484 104.163 28.3698 104.733 28.3698C105.711 28.3698 106.702 28.4117 107.708 28.4964C108.651 28.5716 109.582 28.7575 110.483 29.0503C111.469 29.3465 112.338 29.9443 112.966 30.7597C113.546 31.5686 113.846 32.5444 113.82 33.539C113.829 34.3191 113.652 35.0901 113.304 35.7881C112.951 36.4705 112.439 37.0574 111.81 37.4982C111.081 37.9979 110.268 38.3602 109.409 38.5674C108.353 38.8264 107.268 38.95 106.18 38.9353C105.234 38.9369 104.29 38.8697 103.354 38.7343C102.449 38.6015 101.551 38.4203 100.665 38.1915C99.8108 37.9696 98.9644 37.7178 98.1277 37.4365C97.3427 37.1732 96.5636 36.8924 95.7911 36.5945L96.0469 35.8902C96.1902 35.4968 96.4586 35.1605 96.8109 34.9326C97.193 34.6535 97.6544 34.5038 98.1277 34.5053C98.4507 34.5053 98.7722 34.5488 99.0841 34.6335C99.3858 34.7142 99.6843 34.8115 99.9757 34.9247C100.683 35.2319 101.414 35.4781 102.163 35.6607C102.703 35.7936 103.315 35.9139 104.001 36.0215C104.729 36.1303 105.465 36.1838 106.201 36.1814C106.628 36.1814 107.12 36.16 107.676 36.1181C108.221 36.0792 108.758 35.9682 109.274 35.7881C109.756 35.6223 110.193 35.3499 110.555 34.9912C110.737 34.7986 110.878 34.5708 110.97 34.3218C111.061 34.0728 111.101 33.8078 111.086 33.5429V33.4599C111.084 33.3274 111.073 33.1952 111.054 33.0642C111.029 32.8894 110.971 32.7208 110.886 32.5664C110.775 32.375 110.63 32.2055 110.459 32.0663C110.222 31.8786 109.952 31.7378 109.663 31.6516C108.811 31.381 107.93 31.2165 107.038 31.1617C106.174 31.1114 105.308 31.0858 104.443 31.0849C103.539 31.0876 102.637 31.0162 101.745 30.8713C100.893 30.7351 100.063 30.4902 99.2734 30.1424C98.5791 29.8401 97.9512 29.4042 97.4253 28.8596C96.9365 28.339 96.6406 27.6668 96.5869 26.9548V26.7838C96.5916 26.6066 96.6209 26.4309 96.6724 26.2615C96.7602 25.9964 96.8964 25.7495 97.0754 25.5351C97.3595 25.1889 97.684 24.8781 98.0421 24.6092C98.6048 24.1836 99.1976 23.7993 99.8157 23.4593C99.1621 22.9525 98.6048 22.3325 98.1704 21.6289C97.812 21.0429 97.5194 20.4193 97.2979 19.7691C97.1263 19.2614 97.0087 18.737 96.9471 18.2046C96.9067 17.7614 96.8877 17.4623 96.8877 17.304V17.1996C96.8796 16.116 97.0977 15.0428 97.5283 14.0483C97.9397 13.0895 98.5268 12.2159 99.2591 11.4724C99.9921 10.7306 100.862 10.1372 101.82 9.72506C102.816 9.29672 103.89 9.0785 104.974 9.08405C105.889 9.0888 106.795 9.25895 107.65 9.58657C108.579 9.93925 109.452 10.4229 110.243 11.0229C110.669 10.752 111.122 10.5258 111.594 10.3479C112.166 10.1391 112.772 10.0369 113.38 10.0464C113.788 10.0549 114.193 10.1034 114.59 10.1912C115.05 10.2861 115.504 10.4049 115.95 10.5418L115.702 11.4526ZM99.6004 17.1996C99.594 17.9324 99.735 18.6596 100.014 19.3371C100.273 19.9739 100.656 20.5524 101.142 21.0383C101.628 21.5241 102.207 21.9074 102.844 22.1654C104.213 22.7185 105.744 22.7185 107.113 22.1654C107.751 21.9062 108.33 21.5212 108.816 21.0334C109.301 20.5455 109.684 19.9648 109.94 19.326C110.49 17.954 110.49 16.4229 109.94 15.051C109.681 14.4159 109.298 13.8391 108.813 13.3544C108.327 12.8697 107.75 12.4871 107.114 12.229C105.746 11.6759 104.215 11.6759 102.847 12.229C102.208 12.4875 101.629 12.8719 101.142 13.3594C100.656 13.8468 100.273 14.4273 100.016 15.066C99.7367 15.7438 99.5962 16.4706 99.6027 17.2035M122.873 11.5832C122.153 11.5832 121.461 11.8697 120.952 12.3801C120.442 12.8906 120.155 13.5829 120.155 14.3047C120.155 15.0266 120.442 15.7188 120.952 16.2293C121.204 16.4819 121.504 16.6823 121.833 16.8191C122.163 16.9558 122.516 17.0262 122.873 17.0262C123.11 17.0239 123.346 16.9898 123.573 16.9234C123.795 16.8585 124.009 16.7714 124.214 16.6622C124.281 16.6258 124.353 16.5965 124.427 16.5752C124.495 16.5517 124.568 16.5395 124.64 16.5388C124.75 16.5369 124.858 16.5665 124.952 16.6242C125.043 16.6796 125.129 16.7461 125.206 16.8213L125.279 16.8941C124.813 17.3409 124.232 17.6489 123.601 17.7836C123.363 17.839 123.119 17.8667 122.875 17.8667C122.242 17.8673 121.62 17.6982 121.074 17.3768C120.466 17.0249 119.975 16.5009 119.664 15.8709C119.353 15.2408 119.236 14.5329 119.327 13.8362C119.417 13.1378 119.712 12.4817 120.175 11.9507C120.638 11.4197 121.248 11.0377 121.928 10.8528C122.236 10.7641 122.555 10.7214 122.875 10.7238C123.115 10.7222 123.354 10.7475 123.588 10.799C124.227 10.9361 124.816 11.2475 125.289 11.6987L125.217 11.7715C125.136 11.8552 125.044 11.9272 124.944 11.9852C124.841 12.0382 124.726 12.0646 124.61 12.062C124.538 12.0636 124.466 12.0521 124.397 12.028C124.334 12.0052 124.272 11.9766 124.214 11.9425C124.012 11.8261 123.797 11.7362 123.573 11.675C123.344 11.6188 123.109 11.588 122.873 11.5832V11.5832ZM125.694 14.3047C125.694 13.6718 125.863 13.0504 126.184 12.5044C126.339 12.24 126.526 11.9955 126.743 11.7779C127.182 11.3439 127.725 11.0298 128.32 10.8654C128.963 10.6861 129.643 10.6923 130.283 10.8833C130.923 11.0743 131.495 11.4423 131.934 11.9449C132.375 12.4475 132.665 13.064 132.771 13.7238C132.877 14.3837 132.795 15.06 132.534 15.6754C132.339 16.1422 132.046 16.5617 131.674 16.9057C131.303 17.2497 130.862 17.5102 130.382 17.6696C129.901 17.8284 129.392 17.8824 128.889 17.8278C128.386 17.7731 127.901 17.6113 127.465 17.3531C127.2 17.2001 126.955 17.0134 126.738 16.7975C126.524 16.5781 126.339 16.3333 126.185 16.0687C125.874 15.5321 125.705 14.9249 125.694 14.3047V14.3047ZM126.535 14.3047C126.537 14.8039 126.677 15.2929 126.941 15.7171C127.204 16.1413 127.58 16.4843 128.026 16.7077C128.473 16.9312 128.973 17.0265 129.47 16.983C129.968 16.9395 130.444 16.7588 130.845 16.4612C131.245 16.1624 131.555 15.759 131.74 15.2953C131.925 14.8317 131.978 14.3259 131.894 13.8338C131.81 13.3418 131.591 12.8826 131.262 12.5069C130.933 12.1313 130.507 11.8538 130.03 11.7051C129.624 11.5805 129.195 11.5532 128.777 11.6253C128.359 11.6974 127.964 11.8669 127.624 12.12C127.283 12.3732 127.007 12.7029 126.818 13.0824C126.629 13.462 126.532 13.8807 126.535 14.3047V14.3047ZM139.557 17.7638C139.525 17.7294 139.498 17.6895 139.479 17.6459C139.455 17.5941 139.437 17.5397 139.425 17.4837C139.412 17.4061 139.405 17.3274 139.406 17.2486V16.9748C139.205 17.1622 138.985 17.3277 138.749 17.4686C138.564 17.5772 138.369 17.6681 138.166 17.7401C137.997 17.7981 137.822 17.8361 137.644 17.8532C137.488 17.8692 137.331 17.8772 137.174 17.877C136.708 17.8817 136.246 17.787 135.819 17.5992C135.411 17.4185 135.043 17.1583 134.737 16.8339C134.428 16.5056 134.184 16.1209 134.02 15.7007C133.672 14.8068 133.672 13.8153 134.02 12.9214C134.184 12.5013 134.428 12.1166 134.737 11.7882C135.05 11.4563 135.428 11.1924 135.847 11.013C136.266 10.8335 136.718 10.7423 137.174 10.7451C137.331 10.7451 137.488 10.7531 137.644 10.7689C137.822 10.7855 137.998 10.8243 138.166 10.8844C138.369 10.9549 138.564 11.0451 138.749 11.1535C138.987 11.2904 139.21 11.4503 139.417 11.6299V8.32275H140.258V17.7638H139.557ZM137.169 11.5895C136.809 11.5859 136.453 11.6643 136.128 11.819C135.821 11.9659 135.544 12.1712 135.315 12.4236C135.086 12.6788 134.907 12.9746 134.788 13.2957C134.662 13.6202 134.599 13.9668 134.6 14.3158C134.599 14.6695 134.662 15.0209 134.788 15.3525C134.907 15.6746 135.086 15.9714 135.315 16.227C135.545 16.477 135.821 16.6796 136.128 16.8229C136.455 16.9716 136.811 17.0445 137.169 17.0365C137.582 17.0363 137.99 16.9466 138.365 16.7738C138.757 16.604 139.113 16.3634 139.417 16.0639V12.5795C139.115 12.2714 138.758 12.0219 138.365 11.8436C137.989 11.6748 137.582 11.5884 137.169 11.5903V11.5895ZM145.305 10.7412C145.891 10.7412 146.467 10.8879 146.982 11.168C147.496 11.4481 147.933 11.8526 148.25 12.3445C148.463 12.6737 148.624 13.0346 148.726 13.4129C148.746 13.4888 148.757 13.5664 148.758 13.6439C148.76 13.7539 148.739 13.8631 148.696 13.9644C148.656 14.061 148.6 14.1501 148.53 14.228C148.46 14.3046 148.375 14.3658 148.28 14.4076C148.184 14.4525 148.078 14.475 147.971 14.4733H142.595C142.615 14.9866 142.784 15.4829 143.082 15.9018C143.379 16.3208 143.792 16.6443 144.27 16.8332C144.599 16.9637 144.949 17.0302 145.303 17.0286C145.429 17.027 145.554 17.0144 145.676 16.9898C145.952 16.933 146.22 16.8418 146.473 16.7184C146.596 16.6606 146.716 16.5942 146.831 16.5198C146.897 16.4793 146.969 16.4504 147.045 16.4343C147.114 16.4177 147.186 16.409 147.258 16.4082C147.321 16.4082 147.384 16.4161 147.446 16.4319C147.499 16.4472 147.551 16.4687 147.6 16.496C147.651 16.5261 147.699 16.5601 147.744 16.5989L147.898 16.7255C147.557 17.064 147.159 17.3401 146.722 17.5414C146.501 17.6443 146.27 17.725 146.033 17.7828C145.795 17.8429 145.55 17.873 145.305 17.873C144.985 17.8743 144.667 17.8311 144.36 17.7448C144.061 17.6615 143.774 17.5408 143.506 17.3855C143.241 17.2317 142.997 17.0442 142.78 16.8276C142.342 16.3889 142.024 15.8446 141.858 15.2472C141.773 14.939 141.73 14.6206 141.73 14.3008C141.729 13.8228 141.826 13.3511 142.017 12.9127C142.385 12.0614 143.066 11.3842 143.92 11.0213C144.357 10.8328 144.829 10.7374 145.305 10.7412V10.7412ZM145.305 11.5832C144.643 11.5792 144.002 11.8163 143.502 12.2503C143.013 12.6804 142.699 13.2743 142.618 13.9201C142.648 13.8513 142.687 13.7872 142.733 13.7302C142.761 13.6954 142.797 13.6677 142.838 13.6494C142.879 13.6311 142.924 13.6227 142.968 13.6249H147.907C147.771 13.0211 147.426 12.4845 146.934 12.1095C146.703 11.9343 146.443 11.7997 146.167 11.7114C145.891 11.6232 145.603 11.5799 145.314 11.5832H145.305ZM120.756 20.551V29.9921H119.915V20.551H120.756ZM122.728 24.0805C122.788 24.0042 122.854 23.9328 122.925 23.8669C122.991 23.7996 123.063 23.7363 123.138 23.6769C123.209 23.6136 123.285 23.5566 123.366 23.506C123.632 23.3485 123.914 23.2203 124.207 23.1238C124.537 23.0209 124.88 22.9718 125.225 22.9781C125.545 22.9702 125.865 23.0185 126.168 23.1238C126.423 23.2163 126.66 23.3548 126.866 23.5321C127.061 23.703 127.225 23.908 127.348 24.1367C127.477 24.3741 127.579 24.625 127.651 24.8854C127.727 25.1552 127.779 25.4314 127.809 25.71C127.84 25.9869 127.856 26.2655 127.857 26.5441V29.9968H127.146C127.111 29.9453 127.081 29.891 127.056 29.8346C127.02 29.742 127.003 29.6428 127.007 29.5434V29.2252C126.819 29.3819 126.616 29.518 126.399 29.6312C126.194 29.7412 125.979 29.8322 125.758 29.905C125.558 29.9734 125.351 30.0219 125.142 30.0498C124.954 30.078 124.765 30.0923 124.576 30.0926H124.478C124.187 30.0872 123.899 30.0354 123.625 29.939C123.366 29.8493 123.125 29.714 122.913 29.5394C122.709 29.3703 122.542 29.1606 122.423 28.9237C122.301 28.6726 122.239 28.3964 122.244 28.1173C122.239 27.8126 122.304 27.5108 122.434 27.2349C122.567 26.9643 122.768 26.7324 123.016 26.5615C123.312 26.3606 123.643 26.2157 123.991 26.1341C124.447 26.0292 124.915 25.9803 125.383 25.9885C125.541 25.9885 125.707 25.9885 125.884 26.0099C126.062 26.0313 126.228 26.0376 126.381 26.0566C126.535 26.0756 126.667 26.0906 126.783 26.108L126.996 26.142C126.975 25.7462 126.904 25.3546 126.783 24.9771C126.696 24.715 126.558 24.4724 126.378 24.2633C126.231 24.0967 126.042 23.9726 125.831 23.9041C125.403 23.7715 124.944 23.7715 124.516 23.9041C124.309 23.9753 124.111 24.0726 123.927 24.1945L123.714 24.329C123.621 24.3804 123.516 24.4051 123.411 24.4002C123.218 24.3949 123.033 24.3246 122.886 24.2008L122.728 24.0805ZM124.478 29.2482C124.673 29.2454 124.867 29.2256 125.058 29.1888C125.507 29.1 125.944 28.9592 126.36 28.7694C126.579 28.6721 126.792 28.5636 127.001 28.4449V26.9334L126.787 26.9073C126.656 26.8908 126.525 26.8794 126.394 26.8733L125.897 26.848C125.72 26.848 125.549 26.8345 125.387 26.8345C125.078 26.8329 124.769 26.8535 124.463 26.897C124.212 26.9312 123.967 27.0032 123.738 27.1107C123.546 27.1988 123.38 27.3352 123.257 27.5064C123.136 27.6884 123.075 27.9036 123.082 28.1221C123.083 28.27 123.118 28.4164 123.184 28.5494C123.255 28.6887 123.354 28.8106 123.475 28.9087C123.602 29.0139 123.746 29.0962 123.902 29.15C124.081 29.2094 124.268 29.2403 124.457 29.2403L124.478 29.2482ZM129.6 29.9921V20.5566H130.441V23.9365C130.633 23.7363 130.848 23.5598 131.081 23.411C131.266 23.2929 131.463 23.1953 131.67 23.1198C131.842 23.0565 132.021 23.0146 132.203 22.9963C132.362 22.9822 132.52 22.9751 132.679 22.975C133.136 22.9702 133.588 23.0605 134.008 23.2401C134.427 23.4196 134.805 23.6846 135.116 24.018C135.424 24.3472 135.667 24.7318 135.831 25.1513C136.181 26.0448 136.181 27.037 135.831 27.9305C135.667 28.3496 135.425 28.7334 135.116 29.0614C134.81 29.3853 134.442 29.6454 134.035 29.8267C133.608 30.0151 133.146 30.1105 132.679 30.1068C132.53 30.1068 132.372 30.1068 132.206 30.0831C132.026 30.0637 131.848 30.025 131.676 29.9675C131.47 29.897 131.273 29.8047 131.087 29.6921C130.857 29.5478 130.642 29.3793 130.447 29.1896V29.6043C130.452 29.6889 130.441 29.7737 130.415 29.8544C130.396 29.9058 130.373 29.9525 130.349 30.0016L129.6 29.9921ZM132.678 29.264C133.037 29.268 133.393 29.1904 133.719 29.0369C134.026 28.8898 134.302 28.6851 134.532 28.4339C134.761 28.179 134.941 27.8831 135.061 27.5618C135.185 27.2357 135.249 26.8907 135.247 26.5417C135.248 26.1864 135.185 25.8338 135.061 25.501C134.942 25.1789 134.763 24.8826 134.532 24.6282C134.303 24.3768 134.027 24.1734 133.719 24.0299C133.392 23.8828 133.036 23.8098 132.678 23.8162C132.475 23.8162 132.274 23.84 132.078 23.8866C131.875 23.9341 131.677 23.9998 131.487 24.0837C131.098 24.26 130.743 24.5047 130.441 24.8062V28.2843C130.739 28.5905 131.094 28.8347 131.487 29.0029C131.678 29.0852 131.875 29.15 132.078 29.1967C132.275 29.2426 132.477 29.2656 132.679 29.2656L132.678 29.264ZM136.677 29.0155L137.01 28.8493C137.094 28.8058 137.188 28.7841 137.283 28.786C137.359 28.786 137.436 28.7955 137.512 28.8121C137.615 28.8438 137.713 28.8936 137.801 28.9577C138.071 29.1458 138.392 29.2459 138.721 29.2442C138.904 29.2442 139.086 29.2189 139.261 29.1675C139.437 29.12 139.604 29.0416 139.755 28.938C139.903 28.8367 140.027 28.7037 140.119 28.5494C140.218 28.38 140.271 28.1877 140.272 27.9915C140.266 27.8638 140.241 27.7376 140.198 27.6172C140.152 27.4957 140.079 27.3861 139.985 27.2967C139.857 27.1808 139.713 27.0831 139.558 27.0062C139.342 26.8959 139.117 26.8008 138.888 26.7213L138.743 26.6738C138.515 26.5947 138.288 26.5124 138.064 26.4222C137.847 26.3349 137.644 26.2168 137.46 26.0716C137.281 25.925 137.136 25.7421 137.033 25.5351C136.913 25.2801 136.855 25.0001 136.865 24.7184C136.861 24.4695 136.922 24.2238 137.04 24.0046C137.154 23.798 137.309 23.6168 137.496 23.4743C137.685 23.3302 137.897 23.2201 138.124 23.1491C138.347 23.0763 138.579 23.0335 138.813 23.0225H138.873C139.092 23.0288 139.308 23.0715 139.513 23.1491C139.694 23.2171 139.868 23.3058 140.029 23.4118C140.171 23.5044 140.303 23.6097 140.424 23.726C140.535 23.8336 140.637 23.9254 140.698 23.9998L140.574 24.1051C140.503 24.166 140.427 24.219 140.345 24.2649C140.283 24.3057 140.21 24.3299 140.136 24.3351C140.061 24.3404 139.986 24.3266 139.919 24.295C139.863 24.272 139.809 24.2456 139.756 24.2159C139.701 24.1858 139.645 24.1518 139.59 24.1177C139.533 24.0809 139.474 24.0473 139.413 24.0172C139.31 23.961 139.199 23.9215 139.084 23.8993C138.825 23.8474 138.557 23.8741 138.314 23.9761C138.185 24.0299 138.068 24.1066 137.968 24.2032C137.884 24.2799 137.818 24.3732 137.774 24.477C137.738 24.5518 137.718 24.6331 137.714 24.716C137.708 24.8774 137.747 25.0365 137.827 25.1758C137.906 25.3024 138.01 25.41 138.132 25.4947C138.265 25.5849 138.409 25.6609 138.559 25.7187C138.719 25.7788 138.881 25.839 139.048 25.8967L139.114 25.9157C139.365 25.9988 139.611 26.0954 139.85 26.2061C140.081 26.3154 140.296 26.4538 140.49 26.6192C140.676 26.7791 140.829 26.9738 140.941 27.1922C141.06 27.4375 141.12 27.7074 141.113 27.9804C141.115 28.2599 141.051 28.5359 140.928 28.7868C140.805 29.0416 140.631 29.2695 140.418 29.4555C140.194 29.6534 139.936 29.8093 139.656 29.9137C139.357 30.0269 139.039 30.0839 138.719 30.0823C138.317 30.0834 137.921 29.9872 137.565 29.8021C137.207 29.6193 136.901 29.3486 136.677 29.0155V29.0155ZM82.1005 20.6096C82.0086 20.6333 81.916 20.6523 81.8226 20.665C81.9215 20.6776 82.0189 20.6966 82.1155 20.7227L82.3839 20.7955C82.4607 20.8169 82.5399 20.843 82.6143 20.8699L88.3215 23.7584L90.4149 24.8268L93.1767 26.2236C93.4292 26.3518 93.6596 26.5203 93.8592 26.7221C94.0658 26.9303 94.2456 27.1645 94.3928 27.4185C94.5425 27.671 94.6597 27.9408 94.7428 28.2226C94.8315 28.4987 94.8758 28.7876 94.875 29.0772V29.465L90.0048 27.0078L89.3112 26.6572L87.5875 25.7851L87.19 25.5841L81.5644 22.7471C81.2304 22.5846 80.9062 22.4026 80.5937 22.2018C80.3987 22.0736 80.2274 21.9124 80.0878 21.7254C79.9802 21.5792 79.9133 21.4072 79.8938 21.2268C79.8736 21.0024 79.8643 20.7771 79.8661 20.5518V20.4743C79.8637 20.2487 79.8724 20.0232 79.8938 19.7992C79.9152 19.6409 79.9825 19.4914 80.0878 19.3719C80.2319 19.2176 80.4037 19.0909 80.5937 18.9999C80.8217 18.8812 81.1464 18.7324 81.5644 18.5465L87.1964 15.692L87.5915 15.491L89.3159 14.6229L90.0072 14.2747L94.875 11.8119V12.2013C94.8742 12.4909 94.8291 12.779 94.7428 13.0559C94.6582 13.3463 94.5408 13.6262 94.3928 13.89C94.2479 14.1552 94.0682 14.4005 93.8592 14.6189C93.6628 14.8262 93.4316 14.9972 93.1767 15.1254L90.4387 16.496L88.3468 17.5414L82.6191 20.4212C82.4548 20.5045 82.2805 20.5662 82.1005 20.6048M17.0986 29.0923V31.8162H0.697702V30.8388C0.684343 29.9815 0.978085 29.1476 1.5259 28.4877L13.3171 12.1562H1.59004V9.43067H17.1176V10.3669C17.1466 11.1226 16.9263 11.867 16.4905 12.4854L4.32563 29.3748C4.39293 29.3257 4.46419 29.283 4.53941 29.2466C4.60988 29.2189 4.70806 29.1865 4.8292 29.15C4.97489 29.1129 5.12533 29.0947 5.27577 29.097L17.0986 29.0923Z" fill="white"/>
<path d="M86.4392 27.0806C85.1873 28.2453 83.622 29.0187 81.9359 29.3055C80.2499 29.5924 78.5167 29.3801 76.9497 28.695C75.3818 28.009 74.0483 26.8805 73.1128 25.448C72.1761 24.0145 71.6773 22.3394 71.6773 20.6273C71.6773 18.9152 72.1761 17.2402 73.1128 15.8067C74.0495 14.3743 75.3828 13.2458 76.9497 12.5605C78.5166 11.875 80.2499 11.6626 81.936 11.9495C83.6221 12.2363 85.1875 13.0099 86.4392 14.1749L88.5517 13.105L88.9404 12.9111C88.8134 12.7629 88.68 12.6204 88.5406 12.4837C87.8468 11.7861 87.0657 11.181 86.2167 10.6834C85.3559 10.1807 84.4345 9.78975 83.4748 9.52005C80.9883 8.82791 78.3402 9.00064 75.9648 10.0099C73.2449 11.1276 71.0566 13.2442 69.8499 15.9246C68.6413 18.6078 68.5045 21.6512 69.4674 24.4319C70.4286 27.2101 72.4175 29.5151 75.0257 30.8736C77.6314 32.2301 80.6586 32.5352 83.4827 31.7259C84.4427 31.4561 85.3643 31.0652 86.2254 30.5626C87.0746 30.0665 87.8557 29.4624 88.5493 28.7654C88.695 28.6285 88.8209 28.4876 88.9484 28.3381L88.558 28.141L86.4392 27.0806ZM21.7295 3.12974C21.7302 2.77036 21.819 2.41664 21.9881 2.09948C22.1572 1.78232 22.4014 1.51139 22.6994 1.31037C22.9976 1.10943 23.3406 0.985006 23.6983 0.948093C24.056 0.911179 24.4172 0.962918 24.7501 1.09873C25.083 1.23455 25.3773 1.45026 25.607 1.72679C25.8367 2.00332 25.9946 2.33214 26.0669 2.68419C26.1403 3.03617 26.1263 3.40078 26.0261 3.74609C25.9259 4.09141 25.7425 4.40691 25.4921 4.66499C25.2384 4.92145 24.9257 5.11171 24.5813 5.21907C24.2368 5.32642 23.8713 5.34758 23.5168 5.28069C23.1623 5.21379 22.8297 5.06089 22.5481 4.83542C22.2666 4.60994 22.0447 4.3188 21.9021 3.98758C21.7868 3.71718 21.7281 3.42605 21.7295 3.13211V3.12974ZM25.2529 31.7797H22.5363V9.43063H25.2529V31.7797ZM34.3679 9.43063C34.4471 9.59128 34.5104 9.75826 34.5603 9.93077C34.63 10.241 34.6585 10.5599 34.645 10.878V12.8169C35.1508 12.197 35.7284 11.6391 36.3655 11.155C37.5406 10.2614 38.893 9.62868 40.3324 9.29926C41 9.14665 41.6824 9.06809 42.3672 9.06502C43.4991 9.04628 44.6208 9.28212 45.6492 9.75509C46.6152 10.2148 47.4612 10.8926 48.1203 11.7351C48.8358 12.6659 49.3688 13.7236 49.6912 14.8523C50.0752 16.1794 50.2613 17.5572 50.2438 18.9397V31.7671H47.5375V18.9389C47.5375 16.6598 47.0949 14.8966 46.2105 13.6526C45.3253 12.4086 43.9619 11.7881 42.121 11.7929C41.143 11.7846 40.1692 11.9206 39.231 12.1965C38.3982 12.4387 37.6096 12.8128 36.8952 13.3044C36.2605 13.7373 35.7171 14.2906 35.2959 14.933C34.9085 15.5134 34.6793 16.1847 34.6308 16.8806V31.775H31.9245V9.43063H34.3679ZM57.7578 31.7758V11.9401H53.7411V10.3668C53.7411 9.71394 54.6057 9.38789 56.3342 9.38789H57.7578V6.664C57.7488 5.90681 57.8737 5.15399 58.1268 4.44025C58.3612 3.79132 58.7238 3.19779 59.1941 2.69369C59.666 2.19608 60.2381 1.80417 60.8727 1.54383C61.5694 1.26014 62.316 1.11912 63.0683 1.12915C63.4317 1.13311 63.7936 1.16951 64.1506 1.23836C64.5544 1.31037 64.9519 1.41088 65.3415 1.5375C65.7389 1.66887 66.1277 1.82714 66.5046 2.00995C66.8546 2.17455 67.1919 2.36448 67.5141 2.57815L67.0683 3.21916C66.8833 3.48542 66.6323 3.69919 66.3399 3.8396C66.02 3.95039 65.6819 4.00024 65.3439 3.98521C64.8427 3.96107 64.3469 3.87196 63.8688 3.7201L63.6344 3.67736C63.5503 3.66248 63.4654 3.65191 63.3802 3.64571C63.2844 3.64571 63.1775 3.63463 63.0619 3.63463C62.6725 3.62693 62.2881 3.72279 61.9479 3.9124C61.6312 4.096 61.3557 4.3437 61.1395 4.63967C60.9202 4.93802 60.7515 5.27119 60.6399 5.62493C60.5299 5.96401 60.4722 6.31785 60.4689 6.67428V9.43221H66.6946V11.9424H60.4768V31.7758H57.7578Z" fill="#5AC9EC"/>
</svg>
